<?xml version="1.0" standalone="no"?>
<!DOCTYPE svg PUBLIC "-//W3C//DTD SVG 20010904//EN"
 "http://www.w3.org/TR/2001/REC-SVG-20010904/DTD/svg10.dtd">
<svg version="1.0" xmlns="http://www.w3.org/2000/svg"
 width="512.000000pt" height="512.000000pt" viewBox="0 0 512.000000 512.000000"
 preserveAspectRatio="xMidYMid meet">

<g transform="translate(0.000000,512.000000) scale(0.100000,-0.100000)"
fill="#000000" stroke="none">
<path d="M1435 5106 c-121 -29 -216 -103 -263 -204 l-27 -57 -3 -627 -3 -628
-67 2 c-82 1 -123 -7 -182 -37 -90 -46 -147 -129 -170 -245 -6 -36 -50 -182
-97 -325 -182 -560 -216 -724 -239 -1168 l-6 -117 -137 -154 c-76 -84 -145
-164 -154 -177 -23 -32 -21 -61 4 -93 18 -23 28 -27 62 -24 40 3 48 10 213
195 l172 191 6 154 c9 199 32 418 57 543 28 139 57 241 154 535 89 272 107
332 125 423 15 74 58 121 124 135 55 12 119 1 154 -25 53 -39 82 -205 82 -461
0 -241 -31 -456 -80 -552 -11 -21 -20 -47 -20 -56 0 -9 27 -71 59 -138 90
-182 142 -360 172 -586 18 -138 14 -438 -9 -592 -24 -166 -13 -198 67 -198 35
0 67 34 76 80 15 77 -19 70 331 70 l315 0 24 25 c33 32 33 78 0 110 l-24 25
-307 0 -307 0 6 97 c4 54 7 122 7 151 l0 52 179 0 180 0 20 26 c28 35 26 67
-3 101 l-24 28 -185 3 -184 4 -7 66 c-19 179 -83 406 -165 577 l-48 101 19 54
c46 135 63 280 63 555 0 291 -11 377 -66 494 l-29 63 0 514 0 514 1065 0 1065
0 0 -856 c0 -631 3 -861 12 -877 26 -50 77 -61 122 -26 l26 20 0 1018 c0 1116
3 1054 -60 1146 -39 56 -106 108 -178 137 l-57 23 -905 2 c-692 1 -917 -1
-955 -11z m1875 -170 c85 -45 120 -99 120 -186 l0 -60 -1065 0 -1065 0 0 56
c0 97 48 162 142 195 50 18 100 18 943 16 847 -2 892 -3 925 -21z"/>
<path d="M2415 3327 c-82 -32 -134 -85 -171 -172 -12 -30 -15 -59 -11 -115 5
-72 16 -101 332 -818 180 -409 325 -745 323 -748 -3 -2 -16 4 -29 15 -53 41
-207 122 -283 148 -68 23 -98 28 -181 28 -94 0 -105 -2 -168 -33 -92 -46 -122
-90 -122 -181 0 -100 22 -135 215 -337 94 -97 170 -183 170 -189 0 -19 -59
-96 -119 -153 -105 -102 -233 -174 -377 -214 -67 -18 -109 -22 -269 -24 -104
-1 -195 -2 -201 -3 -6 -1 -79 -73 -162 -161 -128 -134 -152 -164 -152 -190 0
-42 39 -80 81 -80 29 0 49 16 163 135 l131 135 175 4 c194 4 302 25 431 83
136 62 309 201 400 320 l24 33 188 -199 189 -199 215 -98 c128 -58 221 -107
228 -119 7 -11 25 -49 41 -85 35 -84 55 -104 98 -104 47 0 76 28 76 72 0 43
-85 238 -113 257 -11 7 -116 58 -234 111 l-214 98 -397 414 c-218 228 -405
427 -415 443 -39 61 -2 99 104 107 126 9 300 -75 518 -250 93 -76 125 -84 165
-45 16 16 27 45 36 93 l12 69 -361 822 c-253 578 -361 833 -361 858 0 43 22
88 52 109 48 34 146 13 178 -38 7 -11 150 -331 316 -711 167 -379 311 -696
321 -702 47 -35 123 3 123 62 0 15 -46 132 -102 259 -111 250 -121 294 -85
350 24 36 80 60 124 51 63 -12 86 -46 194 -290 55 -126 107 -244 116 -262 16
-35 61 -58 93 -48 30 9 60 45 60 71 0 13 -32 96 -71 186 -82 186 -92 230 -60
281 24 40 58 57 111 57 70 0 94 -33 198 -268 51 -115 102 -218 113 -228 30
-27 78 -22 106 10 12 15 23 35 23 46 0 10 -27 81 -60 158 -33 76 -60 149 -60
161 0 33 28 88 53 104 57 37 128 28 169 -22 13 -15 138 -287 277 -606 l255
-578 -11 -191 -11 -191 45 -102 c25 -56 54 -109 64 -119 28 -26 80 -20 107 11
30 35 28 50 -16 152 l-38 88 12 185 c11 171 10 188 -6 230 -80 199 -526 1191
-548 1219 -105 131 -297 144 -419 29 l-32 -31 -42 36 c-107 92 -278 89 -376
-5 l-32 -31 -37 33 c-60 52 -119 74 -199 74 -79 -1 -124 -16 -177 -63 -20 -17
-38 -31 -40 -31 -2 0 -74 158 -159 351 -168 384 -188 417 -281 463 -42 21 -66
26 -122 25 -39 0 -85 -6 -101 -12z"/>
</g>
</svg>
