<?xml version="1.0" standalone="no"?>
<!DOCTYPE svg PUBLIC "-//W3C//DTD SVG 20010904//EN"
 "http://www.w3.org/TR/2001/REC-SVG-20010904/DTD/svg10.dtd">
<svg version="1.0" xmlns="http://www.w3.org/2000/svg"
 width="512.000000pt" height="512.000000pt" viewBox="0 0 512.000000 512.000000"
 preserveAspectRatio="xMidYMid meet">

<g transform="translate(0.000000,512.000000) scale(0.100000,-0.100000)"
fill="#000000" stroke="none">
<path d="M1245 4948 c-27 -5 -86 -27 -131 -48 -152 -73 -274 -232 -303 -394
-6 -34 -11 -196 -11 -378 l0 -319 25 -24 c29 -30 74 -32 106 -6 l24 19 5 349
5 348 32 67 c44 93 100 151 191 196 l76 37 1486 3 1487 2 -36 -72 -36 -72 -3
-808 -3 -808 25 -25 c33 -33 79 -33 111 0 l25 24 0 481 0 480 295 0 296 0 25
25 25 25 -3 303 -3 302 -32 67 c-44 93 -100 151 -191 196 l-76 37 -1680 1
c-1023 1 -1701 -2 -1731 -8z m3389 -160 c55 -16 138 -99 154 -154 8 -27 12
-117 12 -258 l0 -216 -240 0 -240 0 0 216 c0 257 5 279 75 349 70 71 145 90
239 63z"/>
<path d="M2345 4455 c-24 -23 -25 -29 -25 -160 l0 -135 -135 0 c-131 0 -137
-1 -160 -25 -25 -24 -25 -26 -25 -215 0 -189 0 -191 25 -215 23 -24 29 -25
160 -25 l135 0 0 -135 c0 -131 1 -137 25 -160 24 -25 26 -25 215 -25 189 0
191 0 215 25 24 23 25 29 25 160 l0 135 135 0 c131 0 137 1 160 25 25 24 25
26 25 215 0 189 0 191 -25 215 -23 24 -29 25 -160 25 l-135 0 0 135 c0 131 -1
137 -25 160 -24 25 -26 25 -215 25 -189 0 -191 0 -215 -25z m295 -270 c0 -131
1 -137 25 -160 23 -24 29 -25 160 -25 l135 0 0 -80 0 -80 -135 0 c-131 0 -137
-1 -160 -25 -24 -23 -25 -29 -25 -160 l0 -135 -80 0 -80 0 0 135 c0 131 -1
137 -25 160 -23 24 -29 25 -160 25 l-135 0 0 80 0 80 135 0 c131 0 137 1 160
25 24 23 25 29 25 160 l0 135 80 0 80 0 0 -135z"/>
<path d="M825 3575 l-25 -24 0 -1376 0 -1375 -295 0 -296 0 -26 -26 c-25 -25
-25 -26 -22 -168 4 -141 5 -143 41 -218 45 -91 103 -147 196 -191 l67 -32 262
-3 262 -3 26 25 c33 33 33 79 0 111 l-24 25 -232 0 c-153 0 -246 4 -273 12
-55 16 -138 99 -154 154 -7 23 -12 67 -12 98 l0 56 1599 0 1598 0 5 -91 c5
-77 11 -101 40 -160 l34 -69 -1173 0 -1174 0 -24 -25 c-33 -32 -33 -78 0 -111
l24 -24 1384 2 1383 3 76 37 c91 45 148 104 191 196 27 57 31 79 35 172 4 101
3 107 -20 135 -34 38 -82 39 -115 1 -20 -23 -23 -38 -23 -103 0 -107 -15 -149
-75 -208 -101 -102 -229 -102 -330 0 -64 63 -75 100 -75 244 0 105 -1 113 -25
136 l-24 25 -1336 0 -1335 0 0 1375 0 1376 -25 24 c-15 16 -36 25 -55 25 -19
0 -40 -9 -55 -25z"/>
<path d="M1865 3095 c-16 -15 -25 -36 -25 -55 0 -19 9 -40 25 -55 l24 -25 671
0 671 0 24 25 c33 32 33 78 0 110 l-24 25 -671 0 -671 0 -24 -25z"/>
<path d="M3988 2823 c-178 -159 -389 -246 -633 -260 -97 -6 -112 -9 -133 -30
l-24 -24 5 -382 c3 -348 6 -389 25 -462 67 -254 200 -453 402 -602 91 -67 426
-263 450 -263 22 0 349 190 445 259 247 176 410 469 431 775 6 84 5 93 -16
119 -17 21 -30 27 -60 27 -57 0 -75 -29 -83 -132 -9 -109 -39 -225 -82 -317
-87 -182 -205 -300 -452 -448 -94 -57 -176 -103 -182 -103 -6 0 -88 46 -183
102 -248 149 -366 266 -453 449 -71 151 -78 197 -83 550 l-4 317 64 7 c79 8
174 29 258 57 121 39 298 137 372 205 l26 25 64 -50 c159 -124 360 -206 569
-233 l89 -12 0 -94 c0 -86 2 -96 25 -118 32 -33 78 -33 110 0 24 23 25 28 25
175 0 196 1 194 -155 203 -241 13 -456 102 -633 260 -83 75 -101 75 -184 0z"/>
<path d="M1305 2775 c-16 -15 -25 -36 -25 -55 0 -19 9 -40 25 -55 l24 -25 871
0 871 0 24 25 c16 15 25 36 25 55 0 19 -9 40 -25 55 l-24 25 -871 0 -871 0
-24 -25z"/>
<path d="M1305 2455 c-16 -15 -25 -36 -25 -55 0 -19 9 -40 25 -55 l24 -25 831
0 831 0 24 25 c16 15 25 36 25 55 0 19 -9 40 -25 55 l-24 25 -831 0 -831 0
-24 -25z"/>
<path d="M4030 2450 c-152 -87 -254 -131 -385 -166 -129 -34 -125 -26 -125
-254 0 -206 12 -296 54 -398 36 -90 108 -193 179 -257 65 -59 298 -205 327
-205 22 0 222 120 293 176 78 61 141 143 192 249 62 128 75 206 75 433 0 230
4 222 -125 256 -131 35 -233 79 -385 166 -19 11 -42 20 -50 20 -8 0 -31 -9
-50 -20z m161 -214 c61 -30 151 -67 200 -82 l89 -28 0 -141 c0 -160 -14 -235
-62 -334 -43 -88 -147 -192 -255 -255 l-83 -48 -82 48 c-110 64 -215 168 -256
255 -48 100 -62 175 -62 334 l0 141 89 27 c48 16 135 52 192 81 57 29 108 53
112 54 4 1 57 -22 118 -52z"/>
<path d="M4144 1898 l-104 -101 -64 61 c-36 35 -73 62 -85 62 -55 0 -100 -53
-88 -103 4 -12 51 -66 105 -120 137 -134 127 -135 303 39 76 76 140 148 144
162 13 52 -30 102 -87 102 -13 0 -59 -38 -124 -102z"/>
<path d="M1305 2135 c-16 -15 -25 -36 -25 -55 0 -19 9 -40 25 -55 l24 -25 831
0 831 0 24 25 c16 15 25 36 25 55 0 19 -9 40 -25 55 l-24 25 -831 0 -831 0
-24 -25z"/>
<path d="M1305 1815 c-16 -15 -25 -36 -25 -55 0 -19 9 -40 25 -55 l24 -25 511
0 511 0 24 25 c16 15 25 36 25 55 0 19 -9 40 -25 55 l-24 25 -511 0 -511 0
-24 -25z"/>
<path d="M2766 1418 l-168 -102 -27 32 c-34 41 -93 65 -141 57 -20 -3 -63 -24
-95 -45 l-59 -39 -33 29 c-37 33 -86 45 -139 35 -28 -5 -56 -25 -110 -79 -84
-82 -95 -116 -49 -161 40 -41 77 -34 141 27 53 50 55 51 69 31 21 -31 91 -55
135 -48 20 3 63 23 94 45 l58 38 38 -38 c41 -41 88 -57 139 -47 34 7 379 211
404 239 40 46 1 128 -60 128 -17 -1 -93 -40 -197 -102z"/>
</g>
</svg>
