<?xml version="1.0" standalone="no"?>
<!DOCTYPE svg PUBLIC "-//W3C//DTD SVG 20010904//EN"
 "http://www.w3.org/TR/2001/REC-SVG-20010904/DTD/svg10.dtd">
<svg version="1.0" xmlns="http://www.w3.org/2000/svg"
 width="512.000000pt" height="512.000000pt" viewBox="0 0 512.000000 512.000000"
 preserveAspectRatio="xMidYMid meet">
<metadata>
Created by potrace 1.16, written by Peter Selinger 2001-2019
</metadata>
<g transform="translate(0.000000,512.000000) scale(0.100000,-0.100000)"
fill="#000000" stroke="none">
<path d="M1937 5102 c-15 -17 -17 -64 -17 -470 l0 -452 -778 0 c-742 0 -780
-1 -795 -18 -16 -17 -17 -98 -17 -965 l0 -947 -106 0 c-78 0 -109 -4 -120 -14
-12 -12 -14 -82 -14 -423 l1 -408 27 -65 c35 -82 85 -160 156 -244 l56 -65 0
-261 0 -260 -103 0 c-145 0 -137 16 -137 -257 0 -200 2 -221 18 -236 17 -16
202 -17 2454 -17 2346 0 2436 1 2451 18 15 16 17 48 17 239 0 269 9 253 -138
253 l-102 0 0 2288 c0 2205 -1 2290 -18 2305 -17 16 -130 17 -1419 17 -1343 0
-1401 -1 -1416 -18z m2713 -2357 l0 -2235 -250 0 -250 0 0 766 c0 852 4 807
-68 862 l-35 27 -712 0 -712 0 -35 -27 c-72 -55 -68 -10 -68 -862 l0 -766
-230 0 -230 0 0 2235 0 2235 1295 0 1295 0 0 -2235z m-2730 -470 l0 -1765
-725 0 -725 0 0 200 c0 158 3 199 13 193 6 -4 44 -29 82 -54 95 -63 149 -89
182 -89 64 0 285 150 418 284 93 93 151 174 203 284 l37 77 3 404 c3 392 2
404 -17 422 -18 17 -38 19 -156 19 -83 0 -166 6 -213 16 -77 15 -210 70 -238
99 -23 22 -40 19 -102 -20 -58 -35 -160 -75 -194 -75 -17 0 -18 32 -18 885 l0
885 725 0 725 0 0 -1765z m-1055 -119 c104 -37 221 -56 337 -56 l68 0 0 -310
c0 -306 0 -311 -24 -370 -61 -148 -206 -312 -383 -431 -57 -38 -108 -69 -113
-69 -5 0 -56 31 -113 69 -177 119 -322 283 -383 431 -24 59 -24 64 -24 370 l0
310 73 0 c134 1 291 31 382 75 57 27 46 28 180 -19z m2395 -886 l0 -760 -300
0 -300 0 0 740 c0 727 0 740 20 760 19 19 33 20 300 20 l280 0 0 -760z m730
740 c20 -20 20 -33 20 -760 l0 -740 -305 0 -305 0 0 760 0 760 285 0 c272 0
286 -1 305 -20z m900 -1755 l0 -115 -2330 0 -2330 0 0 115 0 115 2330 0 2330
0 0 -115z"/>
<path d="M2317 4722 c-15 -16 -17 -47 -17 -219 0 -181 2 -201 18 -216 16 -15
49 -17 259 -17 220 0 241 2 256 18 15 16 17 47 17 219 0 181 -2 201 -18 216
-16 15 -49 17 -259 17 -220 0 -241 -2 -256 -18z m393 -217 l0 -95 -135 0 -135
0 0 95 0 95 135 0 135 0 0 -95z"/>
<path d="M3097 4722 c-15 -16 -17 -47 -17 -219 0 -181 2 -201 18 -216 16 -15
49 -17 259 -17 220 0 241 2 256 18 15 16 17 47 17 219 0 181 -2 201 -18 216
-16 15 -49 17 -259 17 -220 0 -241 -2 -256 -18z m393 -217 l0 -95 -135 0 -135
0 0 95 0 95 135 0 135 0 0 -95z"/>
<path d="M3877 4722 c-15 -16 -17 -47 -17 -219 0 -181 2 -201 18 -216 16 -15
49 -17 259 -17 220 0 241 2 256 18 15 16 17 47 17 219 0 181 -2 201 -18 216
-16 15 -49 17 -259 17 -220 0 -241 -2 -256 -18z m393 -217 l0 -95 -135 0 -135
0 0 95 0 95 135 0 135 0 0 -95z"/>
<path d="M2317 4102 c-15 -16 -17 -47 -17 -219 0 -181 2 -201 18 -216 16 -15
49 -17 259 -17 220 0 241 2 256 18 15 16 17 47 17 219 0 181 -2 201 -18 216
-16 15 -49 17 -259 17 -220 0 -241 -2 -256 -18z m393 -217 l0 -95 -135 0 -135
0 0 95 0 95 135 0 135 0 0 -95z"/>
<path d="M3097 4102 c-15 -16 -17 -47 -17 -219 0 -181 2 -201 18 -216 16 -15
49 -17 259 -17 220 0 241 2 256 18 15 16 17 47 17 219 0 181 -2 201 -18 216
-16 15 -49 17 -259 17 -220 0 -241 -2 -256 -18z m393 -217 l0 -95 -135 0 -135
0 0 95 0 95 135 0 135 0 0 -95z"/>
<path d="M3877 4102 c-15 -16 -17 -47 -17 -219 0 -181 2 -201 18 -216 16 -15
49 -17 259 -17 220 0 241 2 256 18 15 16 17 47 17 219 0 181 -2 201 -18 216
-16 15 -49 17 -259 17 -220 0 -241 -2 -256 -18z m393 -217 l0 -95 -135 0 -135
0 0 95 0 95 135 0 135 0 0 -95z"/>
<path d="M2317 3482 c-15 -16 -17 -47 -17 -219 0 -181 2 -201 18 -216 16 -15
49 -17 259 -17 220 0 241 2 256 18 15 16 17 47 17 219 0 181 -2 201 -18 216
-16 15 -49 17 -259 17 -220 0 -241 -2 -256 -18z m393 -217 l0 -95 -135 0 -135
0 0 95 0 95 135 0 135 0 0 -95z"/>
<path d="M3097 3482 c-15 -16 -17 -47 -17 -219 0 -181 2 -201 18 -216 16 -15
49 -17 259 -17 220 0 241 2 256 18 15 16 17 47 17 219 0 181 -2 201 -18 216
-16 15 -49 17 -259 17 -220 0 -241 -2 -256 -18z m393 -217 l0 -95 -135 0 -135
0 0 95 0 95 135 0 135 0 0 -95z"/>
<path d="M3877 3482 c-15 -16 -17 -47 -17 -219 0 -181 2 -201 18 -216 16 -15
49 -17 259 -17 220 0 241 2 256 18 15 16 17 47 17 219 0 181 -2 201 -18 216
-16 15 -49 17 -259 17 -220 0 -241 -2 -256 -18z m393 -217 l0 -95 -135 0 -135
0 0 95 0 95 135 0 135 0 0 -95z"/>
<path d="M2317 2862 c-15 -16 -17 -47 -17 -219 0 -181 2 -201 18 -216 16 -15
49 -17 259 -17 220 0 241 2 256 18 15 16 17 47 17 219 0 181 -2 201 -18 216
-16 15 -49 17 -259 17 -220 0 -241 -2 -256 -18z m393 -217 l0 -95 -135 0 -135
0 0 95 0 95 135 0 135 0 0 -95z"/>
<path d="M3097 2862 c-15 -16 -17 -47 -17 -219 0 -181 2 -201 18 -216 16 -15
49 -17 259 -17 220 0 241 2 256 18 15 16 17 47 17 219 0 181 -2 201 -18 216
-16 15 -49 17 -259 17 -220 0 -241 -2 -256 -18z m393 -217 l0 -95 -135 0 -135
0 0 95 0 95 135 0 135 0 0 -95z"/>
<path d="M3877 2862 c-15 -16 -17 -47 -17 -219 0 -181 2 -201 18 -216 16 -15
49 -17 259 -17 220 0 241 2 256 18 15 16 17 47 17 219 0 181 -2 201 -18 216
-16 15 -49 17 -259 17 -220 0 -241 -2 -256 -18z m393 -217 l0 -95 -135 0 -135
0 0 95 0 95 135 0 135 0 0 -95z"/>
<path d="M657 3862 c-15 -16 -17 -48 -17 -239 0 -200 2 -221 18 -236 17 -15
68 -17 534 -17 486 0 516 1 531 18 15 16 17 48 17 239 0 200 -2 221 -18 236
-17 15 -68 17 -534 17 -486 0 -516 -1 -531 -18z m943 -237 l0 -115 -410 0
-410 0 0 115 0 115 410 0 410 0 0 -115z"/>
<path d="M657 3172 c-15 -16 -17 -48 -17 -239 0 -200 2 -221 18 -236 17 -15
68 -17 534 -17 486 0 516 1 531 18 15 16 17 48 17 239 0 200 -2 221 -18 236
-17 15 -68 17 -534 17 -486 0 -516 -1 -531 -18z m943 -237 l0 -115 -410 0
-410 0 0 115 0 115 410 0 410 0 0 -115z"/>
<path d="M813 1658 l-202 -202 -70 67 c-69 67 -78 72 -117 61 -23 -6 -54 -52
-54 -79 0 -10 46 -64 102 -121 147 -150 118 -159 405 129 209 209 233 236 233
265 0 39 -38 82 -71 82 -16 0 -83 -60 -226 -202z"/>
</g>
</svg>
