<?xml version="1.0" standalone="no"?>
<!DOCTYPE svg PUBLIC "-//W3C//DTD SVG 20010904//EN"
 "http://www.w3.org/TR/2001/REC-SVG-20010904/DTD/svg10.dtd">
<svg version="1.0" xmlns="http://www.w3.org/2000/svg"
 width="512.000000pt" height="512.000000pt" viewBox="0 0 512.000000 512.000000"
 preserveAspectRatio="xMidYMid meet">

<g transform="translate(0.000000,512.000000) scale(0.100000,-0.100000)"
fill="#000000" stroke="none">
<path d="M1830 4731 l-865 -227 -5 49 c-10 89 1 87 -402 87 l-349 0 -24 -25
-25 -24 0 -591 0 -591 25 -24 24 -25 351 0 351 0 24 25 c21 20 25 34 25 80 l0
55 245 0 245 0 281 80 c154 44 285 80 291 80 6 0 -243 -203 -553 -451 -310
-247 -570 -457 -577 -466 -6 -9 -12 -30 -12 -47 0 -26 22 -52 143 -173 156
-156 175 -166 231 -122 l26 20 0 -438 c-1 -435 -1 -438 -23 -474 l-22 -36
-275 143 c-151 79 -297 151 -324 159 -191 58 -396 -52 -456 -244 -25 -78 -26
-132 -2 -159 22 -26 2195 -1232 2219 -1232 10 0 411 103 891 228 l872 228 0
-43 c0 -33 6 -50 25 -68 l24 -25 351 0 351 0 24 25 25 24 0 591 0 591 -25 24
-24 25 -351 0 -351 0 -24 -25 c-21 -20 -25 -34 -25 -80 l0 -55 -160 0 -160 0
0 421 0 420 26 -20 c55 -44 75 -33 226 116 76 76 141 148 145 160 3 13 3 33
-1 46 -3 15 -143 133 -400 337 -217 173 -395 317 -395 320 -1 3 41 5 92 6 77
0 101 4 149 26 65 30 140 95 177 154 l26 42 275 -144 c151 -79 297 -151 324
-159 191 -58 396 52 456 244 25 78 26 132 3 159 -27 31 -2198 1232 -2225 1231
-13 -1 -412 -103 -888 -228z m1916 -512 c566 -314 1033 -575 1038 -579 29 -27
-49 -129 -119 -156 -93 -35 -72 -44 -954 414 -453 236 -822 422 -836 422 -59
0 -97 -83 -57 -128 9 -11 220 -125 467 -253 248 -128 452 -234 454 -236 3 -2
-9 -22 -25 -45 -41 -59 -118 -98 -195 -98 -56 0 -76 9 -499 220 -242 121 -447
220 -455 220 -9 0 -267 -72 -575 -160 l-560 -160 -235 0 -235 0 0 329 0 328
103 27 c815 216 1616 424 1633 425 12 0 484 -256 1050 -570z m-2946 -219 l0
-480 -240 0 -240 0 0 480 0 480 240 0 240 0 0 -480z m1873 -226 c103 -52 160
-95 739 -558 l627 -501 -63 -64 -64 -64 -662 507 c-506 386 -669 506 -690 506
-21 0 -86 -45 -251 -172 -123 -94 -421 -322 -662 -506 l-439 -335 -64 64 -63
64 679 543 c666 533 713 567 783 571 9 1 68 -24 130 -55z m450 -784 l556 -425
1 -481 0 -481 -390 -112 c-214 -61 -394 -111 -399 -111 -7 0 -11 209 -13 588
l-3 587 -26 56 c-95 202 -357 249 -513 93 -21 -22 -51 -64 -65 -94 l-26 -55
-3 -552 -3 -553 -237 119 c-131 65 -262 126 -292 135 -66 20 -171 20 -225 1
-22 -8 -41 -15 -42 -15 -2 0 -3 197 -3 438 l1 437 557 426 c306 235 560 426
563 425 3 0 256 -192 562 -426z m-475 -377 c14 -10 35 -32 46 -47 21 -27 21
-37 21 -634 l0 -606 -73 -20 -74 -20 -84 42 -84 42 0 572 0 573 23 40 c32 56
89 87 150 82 27 -2 60 -13 75 -24z m-1982 -1007 c49 -24 419 -215 822 -425
403 -209 744 -381 758 -381 58 0 95 83 56 128 -9 11 -219 125 -467 253 -247
128 -452 234 -454 236 -3 2 9 22 25 45 41 59 118 98 195 98 56 0 76 -9 499
-220 242 -121 449 -220 459 -220 9 0 268 72 575 160 l557 160 234 0 235 0 0
-330 0 -329 -37 -10 c-1289 -336 -1695 -441 -1706 -441 -13 0 -2061 1133
-2081 1150 -27 25 42 121 109 151 67 31 120 25 221 -25z m4134 -486 l0 -480
-240 0 -240 0 0 480 0 480 240 0 240 0 0 -480z"/>
<path d="M1625 2535 l-25 -24 0 -311 0 -311 25 -24 c24 -25 26 -25 215 -25
189 0 191 0 215 25 l25 24 0 311 0 311 -25 24 c-24 25 -26 25 -215 25 -189 0
-191 0 -215 -25z m295 -335 l0 -200 -80 0 -80 0 0 200 0 200 80 0 80 0 0 -200z"/>
<path d="M3065 2535 l-25 -24 0 -311 0 -311 25 -24 c24 -25 26 -25 215 -25
189 0 191 0 215 25 l25 24 0 311 0 311 -25 24 c-24 25 -26 25 -215 25 -189 0
-191 0 -215 -25z m295 -335 l0 -200 -80 0 -80 0 0 200 0 200 80 0 80 0 0 -200z"/>
</g>
</svg>
