<?xml version="1.0" standalone="no"?>
<!DOCTYPE svg PUBLIC "-//W3C//DTD SVG 20010904//EN"
 "http://www.w3.org/TR/2001/REC-SVG-20010904/DTD/svg10.dtd">
<svg version="1.0" xmlns="http://www.w3.org/2000/svg"
 width="512.000000pt" height="512.000000pt" viewBox="0 0 512.000000 512.000000"
 preserveAspectRatio="xMidYMid meet">

<g transform="translate(0.000000,512.000000) scale(0.100000,-0.100000)"
fill="#000000" stroke="none">
<path d="M1245 4322 c-75 -26 -138 -66 -182 -116 -27 -31 -93 -156 -212 -403
-95 -197 -174 -359 -176 -361 -2 -2 -24 18 -50 43 -26 26 -75 60 -113 78 -61
29 -78 32 -190 35 -153 5 -201 -6 -257 -62 -49 -49 -65 -98 -65 -196 0 -88 14
-138 51 -183 48 -59 87 -71 236 -77 l132 -5 -28 -46 c-16 -25 -42 -79 -57
-120 l-29 -74 -3 -368 c-3 -345 -2 -373 17 -450 26 -100 67 -190 126 -273 l45
-63 0 -209 0 -209 31 -61 c32 -65 66 -99 133 -135 39 -21 53 -22 266 -22 254
0 280 6 355 80 60 61 78 113 83 238 l4 107 802 0 801 0 29 -41 c89 -126 310
-323 505 -450 122 -80 333 -187 384 -196 30 -4 55 4 151 50 508 245 869 609
1011 1022 67 195 68 205 72 823 5 622 5 625 -59 725 -56 88 -99 115 -430 272
-172 81 -347 161 -389 176 -126 46 -235 62 -385 57 l-131 -5 -64 130 c-77 158
-132 221 -236 270 l-68 32 -1030 2 c-957 2 -1034 1 -1080 -15z m2111 -161 c73
-33 110 -76 164 -188 52 -108 57 -123 41 -123 -6 0 -166 -74 -357 -165 -310
-146 -353 -170 -400 -216 -60 -60 -103 -139 -111 -209 l-6 -50 -977 0 -977 0
66 128 c35 70 129 261 208 425 78 164 152 310 163 325 25 31 74 65 115 80 21
7 344 11 1030 11 952 1 1002 0 1041 -18z m642 -411 c45 -6 112 -20 149 -31 83
-25 695 -312 741 -347 18 -14 45 -46 60 -71 l27 -46 3 -468 c2 -278 -1 -473
-6 -480 -5 -7 -13 -50 -16 -97 -37 -443 -295 -822 -761 -1115 -104 -66 -264
-145 -293 -145 -30 0 -246 110 -347 177 -357 236 -578 528 -671 888 l-29 110
0 576 0 575 27 42 c35 53 54 63 423 237 364 172 412 188 595 204 9 0 52 -4 98
-9z m-3577 -320 c45 -13 118 -76 144 -123 19 -35 19 -37 0 -56 -17 -20 -29
-21 -185 -21 -154 0 -169 2 -194 21 -23 18 -26 27 -26 86 0 96 9 103 129 103
53 0 112 -5 132 -10z m2267 -727 l2 -353 -455 0 -456 0 -24 -25 c-30 -29 -32
-74 -6 -106 l19 -24 465 -3 464 -3 6 -58 c4 -32 9 -65 13 -74 6 -16 -29 -17
-465 -17 l-472 0 -24 -25 c-32 -31 -34 -84 -4 -111 20 -18 47 -19 511 -24
l489 -5 38 -92 c21 -51 46 -104 55 -118 9 -13 16 -27 16 -30 0 -11 -1938 -5
-1992 6 -147 31 -284 141 -357 290 -67 135 -73 185 -69 549 l4 315 27 69 c15
38 48 97 73 132 l45 64 1047 -2 1047 -3 3 -352z m-1871 -1203 c59 -16 110 -20
230 -20 l153 0 0 -89 c0 -75 -3 -93 -23 -122 -37 -55 -53 -59 -260 -59 -269 0
-277 7 -277 228 l0 129 50 -24 c28 -13 85 -33 127 -43z"/>
<path d="M3750 3504 c-92 -24 -628 -284 -657 -318 l-24 -29 4 -501 c4 -529 6
-544 55 -686 94 -271 330 -531 647 -714 114 -65 125 -66 223 -14 188 99 396
274 515 433 77 103 150 254 184 380 l27 100 4 506 3 506 -23 26 c-29 33 -601
301 -676 316 -73 15 -216 13 -282 -5z m263 -149 c52 -13 523 -233 555 -258 11
-9 13 -93 9 -461 -4 -479 -6 -495 -58 -636 -81 -219 -312 -464 -576 -610 l-41
-23 -64 38 c-311 187 -507 416 -580 680 -21 76 -22 103 -26 545 l-3 465 258
124 c142 69 281 130 308 137 69 17 150 17 218 -1z"/>
<path d="M4243 2671 c-11 -11 -107 -132 -213 -270 -106 -138 -196 -251 -199
-251 -3 0 -62 43 -130 95 -130 99 -149 107 -201 80 -35 -18 -46 -47 -30 -85
11 -27 234 -208 329 -267 36 -23 71 -22 100 1 7 6 117 145 242 309 243 317
251 331 213 385 -20 29 -81 30 -111 3z"/>
<path d="M754 2761 c-23 -10 -54 -36 -70 -57 -28 -37 -29 -40 -32 -178 -3
-171 6 -197 83 -236 l50 -25 305 0 c329 0 366 5 397 51 22 35 14 164 -14 219
-27 51 -77 101 -125 126 -38 20 -480 119 -527 119 -14 0 -45 -9 -67 -19z m278
-172 c106 -22 205 -45 221 -51 34 -13 87 -73 87 -98 0 -19 -7 -20 -133 -20
-74 0 -195 3 -270 7 l-137 6 0 92 c0 50 3 95 7 98 10 11 23 9 225 -34z"/>
</g>
</svg>
