<?xml version="1.0" standalone="no"?>
<!DOCTYPE svg PUBLIC "-//W3C//DTD SVG 20010904//EN"
 "http://www.w3.org/TR/2001/REC-SVG-20010904/DTD/svg10.dtd">
<svg version="1.0" xmlns="http://www.w3.org/2000/svg"
 width="512.000000pt" height="512.000000pt" viewBox="0 0 512.000000 512.000000"
 preserveAspectRatio="xMidYMid meet">

<g transform="translate(0.000000,512.000000) scale(0.100000,-0.100000)"
fill="#000000" stroke="none">
<path d="M1681 4556 c-707 -203 -847 -247 -863 -266 -19 -23 -19 -52 -15 -959
3 -660 7 -960 16 -1016 85 -564 335 -1053 730 -1427 226 -213 492 -381 792
-498 169 -66 210 -74 277 -55 101 28 244 86 377 152 637 315 1102 905 1264
1603 55 239 55 225 58 1225 2 511 1 940 -2 952 -3 13 -16 30 -28 38 -30 19
-1702 495 -1736 494 -14 -1 -406 -110 -870 -243z m1679 -144 l795 -228 3 -794
c3 -833 -2 -1005 -39 -1185 -30 -148 -25 -142 -68 -87 -60 75 -201 183 -277
212 l-26 10 61 65 c64 69 88 109 114 190 42 129 52 388 19 492 -51 161 -195
293 -369 338 -73 19 -203 19 -276 0 -177 -46 -326 -198 -367 -374 -17 -71 -7
-333 15 -415 22 -84 70 -169 132 -234 29 -31 51 -57 50 -57 -1 -1 -30 -17 -63
-34 -34 -18 -77 -45 -95 -61 l-34 -28 -61 57 c-131 123 -302 160 -468 102
l-56 -19 -34 47 c-67 91 -204 203 -295 241 l-32 13 59 61 c102 106 134 193
153 410 9 111 8 142 -5 206 -47 225 -221 390 -445 422 -259 38 -512 -130 -577
-383 -14 -52 -15 -92 -10 -209 9 -224 43 -323 147 -435 62 -65 67 -75 46 -75
-7 0 -48 -21 -90 -47 -88 -55 -188 -150 -244 -230 l-38 -55 -9 33 c-5 19 -11
427 -13 926 l-4 891 33 11 c18 5 341 99 718 207 377 108 719 207 760 219 41
13 80 23 85 24 6 0 368 -102 805 -227z m-1506 -851 c72 -35 130 -94 168 -169
21 -43 23 -59 22 -192 -1 -172 -18 -251 -69 -326 -69 -100 -165 -149 -295
-149 -76 0 -93 4 -152 33 -126 62 -184 157 -200 330 -20 217 -3 302 79 393 75
83 172 121 300 116 67 -3 92 -9 147 -36z m1746 -318 c79 -36 140 -96 177 -171
26 -54 28 -64 26 -182 0 -69 -6 -154 -13 -189 -22 -125 -93 -220 -199 -270
-48 -22 -69 -26 -151 -26 -79 0 -103 4 -142 24 -154 75 -217 209 -220 462 -1
139 16 190 88 269 85 91 159 121 289 116 66 -2 93 -8 145 -33z m-1788 -698
c114 -24 227 -84 307 -163 37 -37 75 -79 85 -93 16 -26 16 -28 -14 -75 -58
-92 -73 -147 -72 -269 2 -206 41 -349 116 -432 39 -44 43 -53 23 -53 -7 0 -47
-21 -90 -46 -96 -56 -213 -165 -272 -254 -43 -64 -105 -203 -105 -234 0 -8 -4
-17 -9 -21 -15 -8 -270 250 -349 353 -164 215 -316 509 -374 725 -15 58 6 143
62 242 137 250 415 378 692 320z m851 -325 c70 -26 129 -78 158 -138 20 -40
23 -61 21 -139 -4 -206 -41 -314 -125 -370 -62 -41 -118 -57 -183 -50 -93 10
-178 70 -215 154 -41 89 -53 338 -20 408 59 127 223 188 364 135z m912 5 c115
-24 227 -86 315 -174 42 -43 88 -101 105 -133 l29 -57 -33 -83 c-69 -173 -190
-380 -314 -536 -67 -86 -217 -243 -289 -303 l-46 -39 -27 79 c-63 190 -201
350 -388 451 l-77 42 30 34 c42 48 85 138 99 204 16 81 31 278 25 321 -6 35
-4 38 48 77 148 113 340 155 523 117z m-861 -891 c214 -54 398 -231 460 -443
28 -97 26 -102 -65 -161 -106 -68 -315 -169 -445 -216 l-104 -37 -118 43
c-130 47 -328 144 -439 215 -82 53 -85 60 -57 156 32 108 82 190 168 274 90
89 154 128 266 162 93 27 242 31 334 7z"/>
</g>
</svg>
