<?xml version="1.0" standalone="no"?>
<!DOCTYPE svg PUBLIC "-//W3C//DTD SVG 20010904//EN"
 "http://www.w3.org/TR/2001/REC-SVG-20010904/DTD/svg10.dtd">
<svg version="1.0" xmlns="http://www.w3.org/2000/svg"
 width="512.000000pt" height="512.000000pt" viewBox="0 0 512.000000 512.000000"
 preserveAspectRatio="xMidYMid meet">

<g transform="translate(0.000000,512.000000) scale(0.100000,-0.100000)"
fill="#000000" stroke="none">
<path d="M2425 4954 c-168 -26 -282 -62 -418 -132 -317 -162 -546 -464 -623
-822 -26 -118 -26 -362 0 -480 103 -475 454 -826 938 -937 101 -23 373 -23
476 0 244 56 437 161 608 331 170 171 275 364 331 608 23 103 23 375 0 476
-110 478 -453 827 -917 933 -83 19 -327 33 -395 23z m355 -178 c211 -50 380
-145 523 -293 85 -87 124 -142 181 -252 152 -296 153 -634 3 -936 -195 -394
-640 -628 -1070 -564 -498 74 -867 478 -894 980 -25 461 273 892 717 1037 160
53 388 64 540 28z"/>
<path d="M2445 4633 c-60 -8 -181 -42 -239 -68 -482 -213 -670 -804 -400
-1257 65 -108 194 -237 302 -302 346 -206 789 -151 1073 133 112 112 191 253
235 417 27 103 26 312 -3 419 -92 340 -362 591 -698 650 -81 14 -198 17 -270
8z m247 -167 c102 -20 175 -49 260 -105 101 -66 196 -172 247 -274 61 -124 76
-190 75 -337 -1 -107 -5 -137 -27 -205 -38 -115 -90 -198 -182 -290 -92 -92
-175 -144 -290 -182 -68 -22 -98 -26 -205 -27 -147 -1 -213 14 -337 75 -145
72 -287 228 -343 377 -77 204 -59 439 47 622 47 80 178 213 256 259 152 89
328 120 499 87z"/>
<path d="M2505 4295 c-21 -20 -25 -34 -25 -83 l0 -59 -42 -12 c-76 -22 -143
-74 -172 -132 -14 -29 -26 -69 -26 -89 0 -53 44 -134 93 -170 52 -38 152 -70
221 -70 90 -1 170 -42 164 -84 -4 -28 -61 -64 -114 -72 -102 -15 -192 23 -205
86 -14 68 -87 93 -134 45 -33 -32 -32 -76 1 -144 29 -58 96 -110 172 -132 l42
-12 0 -59 c0 -49 4 -63 25 -83 15 -16 36 -25 55 -25 19 0 40 9 55 25 21 20 25
34 25 83 l0 59 43 12 c75 22 142 74 171 132 14 29 26 69 26 89 0 53 -44 134
-93 170 -52 38 -152 70 -221 70 -90 1 -170 42 -164 84 4 28 61 64 114 72 102
15 192 -23 205 -86 14 -68 87 -93 134 -45 33 32 32 76 -1 144 -29 58 -96 110
-171 132 l-43 12 0 59 c0 49 -4 63 -25 83 -15 16 -36 25 -55 25 -19 0 -40 -9
-55 -25z"/>
<path d="M559 3997 c-127 -48 -205 -149 -216 -281 -5 -58 -8 -63 -54 -104 -64
-57 -100 -133 -106 -220 -4 -62 10 -118 182 -756 130 -485 194 -705 213 -740
22 -39 102 -116 341 -331 207 -185 320 -294 335 -320 19 -36 21 -58 24 -242 3
-182 2 -203 -13 -203 -9 0 -27 -11 -40 -25 l-25 -24 0 -271 0 -271 25 -24 24
-25 591 0 591 0 24 25 25 24 0 271 0 271 -25 24 c-13 14 -31 25 -39 25 -13 0
-15 68 -18 523 -4 515 -4 523 -27 592 -49 147 -139 280 -246 363 -40 31 -764
463 -795 474 -5 2 -88 233 -184 513 -97 281 -186 532 -198 559 -50 108 -154
177 -278 183 -47 2 -89 -2 -111 -10z m171 -167 c21 -11 47 -32 58 -47 10 -16
91 -237 179 -493 89 -256 164 -472 167 -480 5 -12 -6 -20 -46 -32 -29 -9 -54
-15 -55 -15 -1 1 -54 164 -118 361 -64 197 -124 375 -135 395 -41 80 -147 156
-236 168 -45 6 -46 7 -40 37 13 66 83 126 148 126 21 0 56 -9 78 -20z m-155
-323 c24 -13 49 -39 61 -62 12 -22 77 -212 144 -422 l123 -382 -21 -50 c-48
-109 -19 -256 67 -340 54 -53 532 -331 569 -331 13 0 34 11 47 25 32 31 33 78
3 108 -13 12 -124 81 -248 151 -124 71 -236 139 -248 150 -35 31 -52 70 -52
118 0 94 72 162 165 155 44 -3 95 -30 435 -228 432 -252 482 -290 552 -425 66
-126 68 -142 68 -686 l0 -488 -399 0 -399 0 -4 212 c-6 318 -3 313 -368 634
-280 246 -337 300 -356 337 -8 15 -96 330 -195 700 -191 711 -193 720 -151
776 52 71 133 90 207 48z m1745 -3027 l0 -160 -480 0 -480 0 0 160 0 160 480
0 480 0 0 -160z"/>
<path d="M4380 4001 c-86 -28 -164 -91 -199 -159 -10 -20 -101 -273 -201 -562
l-183 -525 -266 -155 c-415 -241 -497 -291 -552 -336 -103 -84 -182 -205 -230
-349 -23 -69 -24 -76 -27 -592 -3 -456 -5 -523 -18 -523 -8 0 -26 -11 -39 -25
l-25 -24 0 -271 0 -271 25 -24 24 -25 591 0 591 0 24 25 25 24 0 271 0 271
-25 24 c-13 14 -31 25 -40 25 -15 0 -16 21 -13 202 3 186 5 206 25 244 15 28
119 128 326 312 300 267 327 294 361 360 10 19 99 336 198 705 162 598 182
681 182 752 1 68 -3 88 -27 137 -16 33 -49 76 -76 100 -46 41 -49 46 -54 106
-10 114 -75 209 -179 263 -46 24 -171 36 -218 20z m160 -173 c42 -29 68 -65
76 -104 6 -30 5 -31 -40 -37 -93 -13 -194 -84 -235 -166 -11 -21 -72 -200
-136 -397 -64 -197 -118 -360 -119 -361 -1 -1 -26 5 -54 14 -40 13 -51 21 -46
33 3 8 78 222 165 475 88 253 168 473 178 490 40 69 148 96 211 53z m160 -320
c46 -32 71 -68 77 -114 4 -30 -35 -186 -167 -679 -94 -352 -178 -662 -187
-689 -21 -66 -49 -94 -366 -375 -159 -141 -286 -261 -305 -289 -60 -89 -72
-149 -72 -368 l0 -194 -400 0 -400 0 0 488 c0 544 2 560 67 686 69 133 121
173 554 425 419 245 436 252 513 216 98 -47 116 -188 34 -261 -12 -11 -124
-79 -248 -150 -124 -71 -235 -139 -247 -151 -31 -30 -30 -77 2 -108 13 -14 34
-25 47 -25 37 0 515 278 569 331 65 64 92 139 86 239 -2 44 -12 91 -22 113
l-19 37 124 383 c67 210 132 400 144 422 41 78 148 109 216 63z m-940 -3028
l0 -160 -480 0 -480 0 0 160 0 160 480 0 480 0 0 -160z"/>
</g>
</svg>
