<?xml version="1.0" standalone="no"?>
<!DOCTYPE svg PUBLIC "-//W3C//DTD SVG 20010904//EN"
 "http://www.w3.org/TR/2001/REC-SVG-20010904/DTD/svg10.dtd">
<svg version="1.0" xmlns="http://www.w3.org/2000/svg"
 width="512.000000pt" height="512.000000pt" viewBox="0 0 512.000000 512.000000"
 preserveAspectRatio="xMidYMid meet">

<g transform="translate(0.000000,512.000000) scale(0.100000,-0.100000)"
fill="#000000" stroke="none">
<path d="M388 5099 c-23 -12 -46 -35 -58 -59 -20 -39 -20 -57 -20 -1280 0
-1224 0 -1241 20 -1280 13 -26 34 -47 60 -60 39 -20 54 -20 2170 -20 2116 0
2131 0 2170 20 26 13 47 34 60 60 20 39 20 56 20 1280 0 1224 0 1241 -20 1280
-13 26 -34 47 -60 60 -39 20 -54 20 -2172 20 -2104 -1 -2134 -1 -2170 -21z
m4122 -1339 l0 -1060 -1950 0 -1950 0 0 1060 0 1060 1950 0 1950 0 0 -1060z"/>
<path d="M988 4499 c-23 -12 -46 -35 -58 -59 -19 -38 -20 -58 -20 -680 0 -622
1 -642 20 -680 36 -70 70 -80 280 -80 161 0 185 2 220 20 45 23 80 80 80 130
0 50 -35 107 -80 130 -31 16 -59 20 -130 20 l-90 0 0 460 0 460 90 0 c71 0 99
4 130 20 45 23 80 80 80 130 0 50 -35 107 -80 130 -35 18 -58 20 -222 20 -162
-1 -187 -3 -220 -21z"/>
<path d="M2438 4510 c-249 -45 -471 -223 -566 -453 -177 -425 44 -890 488
-1028 108 -34 292 -34 400 0 227 71 402 226 489 434 175 423 -45 890 -484
1027 -79 24 -249 35 -327 20z m227 -305 c86 -23 149 -61 215 -131 103 -110
146 -246 122 -385 -17 -97 -53 -169 -124 -245 -178 -190 -458 -190 -636 0 -71
76 -107 148 -124 245 -24 139 19 275 122 385 117 124 269 171 425 131z"/>
<path d="M3688 4499 c-43 -22 -78 -81 -78 -129 0 -50 35 -107 80 -130 31 -16
59 -20 130 -20 l90 0 0 -460 0 -460 -90 0 c-71 0 -99 -4 -130 -20 -45 -23 -80
-80 -80 -130 0 -50 35 -107 80 -130 35 -18 59 -20 220 -20 210 0 244 10 280
80 19 38 20 58 20 680 0 622 -1 642 -20 680 -36 71 -69 80 -282 80 -162 -1
-187 -3 -220 -21z"/>
<path d="M1408 1931 c-103 -23 -193 -52 -303 -98 l-79 -33 -454 0 c-434 0
-454 -1 -492 -20 -26 -13 -47 -34 -60 -60 -20 -38 -20 -57 -20 -820 0 -763 0
-782 20 -820 13 -26 34 -47 60 -60 38 -19 58 -20 525 -20 467 0 487 1 525 20
60 30 80 78 80 188 l0 89 108 24 c88 20 135 24 267 24 152 0 172 -3 385 -47
570 -120 1010 -126 1480 -22 563 125 1110 440 1557 896 81 83 103 111 108 142
12 63 -9 111 -83 185 -153 152 -359 231 -572 218 -163 -10 -291 -58 -420 -157
-36 -27 -123 -94 -195 -149 l-130 -99 -35 67 c-111 210 -267 335 -500 397 -37
10 -144 18 -325 24 -322 11 -512 33 -821 96 -202 41 -247 47 -384 50 -124 3
-172 0 -242 -15z m522 -320 c329 -71 556 -99 910 -111 187 -6 269 -12 306 -24
74 -23 169 -90 213 -150 36 -47 71 -107 71 -121 0 -3 -270 -5 -600 -5 -582 0
-602 -1 -640 -20 -45 -23 -80 -80 -80 -130 0 -50 35 -107 81 -130 39 -21 50
-21 697 -17 738 4 694 -1 857 82 98 49 198 118 384 265 67 52 145 107 174 122
95 49 204 61 312 33 59 -16 135 -53 135 -66 0 -12 -231 -210 -344 -294 -388
-288 -784 -453 -1251 -522 -88 -12 -185 -17 -365 -17 -292 -1 -414 13 -764 85
-337 70 -529 76 -784 23 l-32 -7 2 474 3 474 90 34 c142 52 194 61 345 57 104
-3 168 -11 280 -35z m-1020 -711 l0 -600 -305 0 -305 0 0 600 0 600 305 0 305
0 0 -600z"/>
</g>
</svg>
